<svg width="22" height="26" viewBox="0 0 22 26" fill="none" xmlns="http://www.w3.org/2000/svg">
<path d="M21.2917 9.75C19.454 9.75 17.5 11.2692 17.5 14.0833C17.5 15.5115 18.0459 16.5314 18.5738 17.5185C19.1356 18.569 19.6667 19.5613 19.6667 21.125C19.6667 23.6768 18.4268 24.9167 15.875 24.9167H15.2702C15.9755 24.2277 16.4167 23.2697 16.4167 22.2084V20.0417C16.4167 17.2582 14.8075 15.8448 13.6332 14.8133C13.4058 14.6134 13.192 14.4261 13.0079 14.2421C12.7381 13.9723 12.3763 13.6485 11.9817 13.2963C11.0063 12.4266 9.37499 10.9709 9.37499 10.2917V4.875C9.37499 3.31348 8.19961 2.56973 7.65158 2.30841C7.42413 1.64511 6.69313 0 5.04168 0C4.74227 0 4.49999 0.242277 4.49999 0.541684C4.49999 1.38064 4.12761 2.16668 3.95831 2.16668C3.17648 2.16668 2.70889 2.86813 2.33331 3.43307C2.19473 3.64041 2.06351 3.83718 1.95032 3.95043C1.81702 4.08373 1.62131 4.21809 1.41925 4.36089C0.832064 4.77669 0.166626 5.2485 0.166626 5.95837C0.166626 7.93142 2.492 8.66668 3.95831 8.66668C4.28311 8.66668 4.38254 8.69101 4.39523 8.69101C4.39523 8.69101 4.39523 8.69101 4.3963 8.69101C4.50106 8.84335 4.50106 9.63681 4.49999 10.5551V10.8333C4.49999 11.0978 4.40478 11.2682 4.20587 11.5992C3.87259 12.1547 3.41663 12.9143 3.41663 14.6249C3.41663 15.7665 4.2471 17.5026 4.49994 18.0051V22.75H3.95826C3.06217 22.75 2.33326 23.4789 2.33326 24.375V25.4583C2.33331 25.7577 2.57559 26 2.87499 26H15.875C19.0192 26 20.75 24.2692 20.75 21.125C20.75 19.2905 20.1015 18.0771 19.5291 17.0075C19.0213 16.0585 18.5833 15.2397 18.5833 14.0834C18.5833 11.6988 20.203 10.8334 21.2916 10.8334C21.591 10.8334 21.8333 10.5911 21.8333 10.2917C21.8333 9.99228 21.5911 9.75 21.2917 9.75ZM12.625 24.9167H7.74999V24.375C7.74999 24.0767 7.99334 23.8333 8.29168 23.8333H9.37499C9.59401 23.8333 9.79181 23.7011 9.87539 23.499C9.95898 23.297 9.91241 23.0632 9.75794 22.9087L8.67462 21.8254C7.5585 20.7082 7.64102 19.7074 7.90762 19.0641C8.316 18.0771 9.41308 17.3334 10.4583 17.3334C10.7577 17.3334 11 17.0911 11 16.7917C11 16.4923 10.7577 16.25 10.4583 16.25C8.97611 16.25 7.48233 17.2593 6.90677 18.6494C6.35981 19.9708 6.72482 21.4075 7.90863 22.5913L8.08109 22.7638C7.28443 22.8675 6.66663 23.5509 6.66663 24.375V24.9167H3.41663V24.375C3.41663 24.0767 3.65997 23.8333 3.95831 23.8333H5.04163C5.34103 23.8333 5.58331 23.591 5.58331 23.2916V17.875C5.58331 17.7883 5.56213 17.7015 5.52197 17.6242C5.23739 17.0794 4.49999 15.4767 4.49999 14.625C4.49999 13.2148 4.83749 12.653 5.13476 12.1568C5.35479 11.7897 5.58331 11.4099 5.58331 10.8333V10.5562C5.58438 9.34055 5.58438 8.73016 5.40872 8.30167C5.11353 7.58332 4.41849 7.58332 3.95826 7.58332C3.10981 7.58332 1.25096 7.17387 1.24994 5.95938C1.27112 5.79328 1.79371 5.42298 2.04553 5.24423C2.30264 5.06228 2.547 4.88556 2.71625 4.71631C2.90561 4.52695 3.06537 4.2868 3.23463 4.03289C3.44207 3.72079 3.75625 3.25 3.95831 3.25C4.93057 3.25 5.38232 2.10529 5.52831 1.19123C6.34823 1.56995 6.67937 2.82577 6.68359 2.84055C6.72802 3.01722 6.86239 3.16215 7.03377 3.22141C7.08562 3.23939 8.29168 3.67103 8.29168 4.875V10.2917C8.29168 11.3708 9.57812 12.6044 11.2602 14.1045C11.638 14.442 11.9839 14.7498 12.242 15.008C12.4409 15.2069 12.6715 15.41 12.9181 15.6269C14.0501 16.6214 15.3334 17.7492 15.3334 20.0417V22.2084C15.3333 23.7021 14.1188 24.9167 12.625 24.9167Z" fill="#8F939D"/>
<path d="M4.49999 4.3333H3.95831C3.6589 4.3333 3.41663 4.57557 3.41663 4.87498C3.41663 5.17439 3.6589 5.41666 3.95831 5.41666H4.49999C4.7994 5.41666 5.04167 5.17439 5.04167 4.87498C5.04167 4.57557 4.7994 4.3333 4.49999 4.3333Z" fill="#8F939D"/>
</svg>
