<svg width="26" height="26" viewBox="0 0 26 26" fill="none" xmlns="http://www.w3.org/2000/svg">
<path d="M19.8088 5.8402C20.2042 5.8402 20.5247 5.51964 20.5247 5.12421C20.5247 4.72879 20.2042 4.40823 19.8088 4.40823C19.4133 4.40823 19.0928 4.72879 19.0928 5.12421C19.0928 5.51964 19.4133 5.8402 19.8088 5.8402Z" fill="#8F939D"/>
<path d="M25.0439 4.88554C23.9383 4.88554 22.9892 4.96335 22.0725 4.04671L20.8862 2.86045C20.349 2.32335 19.6207 2.02162 18.8611 2.02162H15.5306H15.5105C14.7496 2.02162 14.0199 2.32317 13.4808 2.86039L13.4633 2.87782L11.2287 5.11239C10.7627 5.57826 10.501 6.21017 10.501 6.86905V7.61904C10.501 8.97809 11.5797 10.38 12.924 10.5805C13.0732 10.6026 13.2203 10.6134 13.365 10.6134V10.8041C11.0124 12.1599 6.18536 14.894 5.22958 15.8426C4.42524 16.6473 3.81856 17.9194 3.81856 19.2052C3.81856 19.7791 3.89362 20.3628 4.22733 21.1217L1.43196 21.1144C0.641161 21.1144 0 21.7556 0 22.5464C0 23.3372 0.641161 23.9784 1.43196 23.9784H13.3508C14.0599 23.9784 14.5515 23.2168 14.2087 22.596C13.9034 22.0434 13.4209 21.6026 12.838 21.3496C13.1659 20.6983 13.3563 20.1593 14.1789 20.1593H15.2743V23.0237C15.2743 23.5509 15.7017 23.9784 16.2289 23.9784H19.7806C20.5127 23.9784 20.9858 23.1799 20.6161 22.5478C20.1761 21.7949 19.3991 21.2631 18.4917 21.1501L18.704 19.4516C19.8516 18.7472 20.6972 17.5768 20.9298 16.222C21.2551 14.3261 20.448 12.6139 19.0928 11.5897V9.65869H21.9567C23.0069 9.65869 24.3081 8.92189 24.8483 8.02136C25.0761 7.64201 26.0023 6.26631 25.9999 5.83678C25.9974 5.34085 25.6005 4.88554 25.0439 4.88554ZM13.3608 9.64855C12.1936 9.64855 11.4557 8.65984 11.4557 7.64332V6.86929C11.4557 6.47246 11.6072 6.08386 11.9037 5.7875L14.1383 3.55298C14.4382 3.25311 14.8408 3.05353 15.2743 3.00037V7.74947C15.2743 8.77063 14.452 9.64855 13.3608 9.64855ZM1.43196 23.0237C1.16884 23.0237 0.954641 22.8096 0.954641 22.5464C0.954641 22.2832 1.16884 22.0691 1.4294 22.0691C4.88651 22.078 4.02924 22.0758 4.80369 22.0778C5.15727 22.5421 5.21479 22.6206 5.75625 23.0237H1.43196ZM24.0299 7.53026C23.6425 8.17583 22.7095 8.70411 21.9567 8.70411H19.5219C18.9005 8.70411 18.3756 8.30387 18.1778 7.74947H17.1835C17.3057 8.34892 17.6581 8.86091 18.1382 9.20565V12.0649C19.5133 13.1043 20.2931 14.2883 19.9889 16.0605C19.7473 17.4677 18.896 18.2136 17.8137 18.878C17.5844 20.7128 17.5149 21.2676 17.4259 21.9795C18.3887 22.0993 19.2559 22.1012 19.7806 23.0238C17.7844 23.0238 18.2206 23.0238 16.2289 23.0238C16.2289 20.7351 16.2289 20.5507 16.2289 18.2506H15.2743V19.2047C15.0214 19.2047 14.8202 19.2047 14.1789 19.2047C13.8842 19.2047 13.6095 19.2829 13.3489 19.393C13.3958 18.0957 12.9264 16.7898 11.9666 15.8299L11.2916 16.5049C12.707 17.921 12.6204 19.9925 11.8137 21.2562L11.5275 21.822C12.2701 22.144 12.9818 22.3451 13.3507 23.0238H8.5889C6.47378 23.0219 4.80339 21.3182 4.77828 19.2566C4.75799 18.1145 5.27612 16.9331 6.32491 16.1519C7.37562 15.3692 13.1844 12.0099 14.3196 11.3557C14.3196 11.0961 14.3201 10.6849 14.3189 10.4382C15.429 10.0438 16.2289 8.99486 16.2289 7.74947V2.97626H18.8614C19.3678 2.97626 19.8533 3.17739 20.2113 3.53544L21.3974 4.72164C22.0772 5.40147 22.971 5.78058 23.9252 5.8233C24.0261 6.17037 24.2608 6.4567 24.5722 6.62633L24.0299 7.53026Z" fill="#8F939D"/>
</svg>
