<svg width="23" height="30" viewBox="0 0 23 30" fill="none" xmlns="http://www.w3.org/2000/svg">
<path d="M11.1628 1.39535C16.5474 1.39535 20.9302 5.77814 20.9302 11.1628C20.9302 16.5474 16.5474 20.9302 11.1628 20.9302C5.77674 20.9302 1.39535 16.5474 1.39535 11.1628C1.39535 5.77814 5.77674 1.39535 11.1628 1.39535ZM11.1628 0C4.99814 0 0 4.99814 0 11.1628C0 17.3274 4.99814 22.3256 11.1628 22.3256C17.3274 22.3256 22.3256 17.3274 22.3256 11.1628C22.3256 4.99814 17.3274 0 11.1628 0Z" fill="#8F939D"/>
<path d="M10.465 30.0001C10.0799 30.0001 9.76736 29.6875 9.76736 29.3024V22.3256C9.76736 21.9405 10.0799 21.628 10.465 21.628C10.8502 21.628 11.1627 21.9405 11.1627 22.3256V29.3024C11.1627 29.6875 10.8502 30.0001 10.465 30.0001Z" fill="#8F939D"/>
<path d="M13.9537 27.907H6.97694C6.59182 27.907 6.27927 27.5944 6.27927 27.2093C6.27927 26.8242 6.59182 26.5117 6.97694 26.5117H13.9537C14.3374 26.5117 14.6514 26.8242 14.6514 27.2093C14.6514 27.5944 14.3374 27.907 13.9537 27.907Z" fill="#8F939D"/>
</svg>
