<svg width="25" height="26" viewBox="0 0 25 26" fill="none" xmlns="http://www.w3.org/2000/svg">
<path d="M10.7597 5.82564C15.9499 5.82564 20.1744 10.0502 20.1744 15.2404C20.1744 20.4305 15.9499 24.6551 10.7597 24.6551C5.56813 24.6551 1.34496 20.4305 1.34496 15.2404C1.34496 10.0488 5.56813 5.82564 10.7597 5.82564ZM10.7597 4.48068C4.81764 4.48068 0 9.29833 0 15.2404C0 21.1824 4.81764 26 10.7597 26C16.7017 26 21.5193 21.1824 21.5193 15.2404C21.5193 9.29833 16.7017 4.48068 10.7597 4.48068Z" fill="#5C00F1"/>
<path d="M17.3218 8.00586C17.1496 8.00586 16.9775 7.93996 16.8457 7.8095C16.5847 7.54992 16.5847 7.12088 16.8457 6.85861L21.6001 2.10418C21.8623 1.84461 22.29 1.84461 22.551 2.10418C22.8132 2.36645 22.8132 2.79549 22.551 3.05507L17.7952 7.80816C17.6661 7.93996 17.4939 8.00586 17.3218 8.00586Z" fill="#5C00F1"/>
<path d="M23.978 7.05499C23.6646 7.05499 23.3835 6.83442 23.3189 6.51432L22.4541 2.19969L18.1408 1.33623C17.7764 1.2636 17.541 0.909875 17.6123 0.545391C17.6849 0.180908 18.0359 -0.0625299 18.4031 0.0141327L23.1575 0.965018C23.4238 1.01747 23.6336 1.22594 23.6848 1.49628L24.637 6.2507C24.711 6.61519 24.4756 6.96622 24.1098 7.04154C24.0654 7.05096 24.021 7.05499 23.978 7.05499Z" fill="#5C00F1"/>
</svg>
