<svg width="13" height="21" viewBox="0 0 13 21" fill="none" xmlns="http://www.w3.org/2000/svg">
<g clip-path="url(#clip0)">
<path d="M6.50006 13.5978C4.95828 13.5978 3.70996 12.1942 3.70996 10.4606V3.1372C3.70996 1.40361 4.95828 0 6.50006 0C8.04183 0 9.29015 1.40361 9.29015 3.1372V10.4606C9.29015 12.1942 8.04183 13.5978 6.50006 13.5978Z" fill="#4285F4"/>
<path d="M7.43294 17.1635H5.57141V21H7.43294V17.1635Z" fill="#34A853"/>
<path d="M11.1604 10.5C11.156 13.386 9.06675 15.7353 6.50004 15.7353C5.21231 15.7353 4.04283 15.1443 3.19748 14.1888L1.89661 15.6515C3.07484 16.9763 4.69984 17.7988 6.50004 17.7988C10.0873 17.7988 12.9957 14.5286 13 10.4951H11.1604V10.5Z" fill="#EA4335"/>
<path d="M3.19744 14.1888C2.36085 13.2432 1.83962 11.9381 1.83962 10.5H0C0 12.5093 0.727089 14.3316 1.89656 15.6515L3.19744 14.1888Z" fill="#FBBC05"/>
</g>
<defs>
<clipPath id="clip0">
<rect width="13" height="21" fill="white"/>
</clipPath>
</defs>
</svg>
