<svg width="30" height="30" viewBox="0 0 30 30" fill="none" xmlns="http://www.w3.org/2000/svg">
<path d="M15 0C6.72 0 0 6.72 0 15C0 23.28 6.72 30 15 30C23.28 30 30 23.28 30 15C30 6.72 23.28 0 15 0ZM15 27C8.385 27 3 21.615 3 15C3 8.385 8.385 3 15 3C21.615 3 27 8.385 27 15C27 21.615 21.615 27 15 27ZM6.75 23.25L18.015 18.015L23.25 6.75L11.985 11.985L6.75 23.25ZM15 13.35C15.915 13.35 16.65 14.085 16.65 15C16.65 15.915 15.915 16.65 15 16.65C14.085 16.65 13.35 15.915 13.35 15C13.35 14.085 14.085 13.35 15 13.35Z" fill="#DAD0EA"/>
</svg>
