<svg width="35" height="35" viewBox="0 0 35 35" fill="none" xmlns="http://www.w3.org/2000/svg">
<g clip-path="url(#clip0)">
<path d="M23.4051 18.5494C21.8301 16.0925 19.1478 14.6254 16.2297 14.6254C13.3116 14.6254 10.6293 16.0925 9.05467 18.5494L5.25966 24.4697C4.63001 25.4518 4.33948 26.5867 4.41932 27.7507C4.49916 28.9149 4.94216 29.9991 5.70026 30.8867C6.45889 31.7735 7.46131 32.3796 8.59912 32.6397C9.73693 32.8998 10.9033 32.7887 11.972 32.319L12.0435 32.2872C14.7325 31.1289 17.8052 31.1396 20.4872 32.319C21.1791 32.6232 21.9121 32.777 22.6518 32.777C23.0539 32.777 23.4585 32.7313 23.8593 32.64C24.9971 32.3802 25.9995 31.774 26.7584 30.8869C27.5168 30.0001 27.96 28.9157 28.0401 27.7512C28.1203 26.5867 27.8297 25.4521 27.2001 24.4694L23.4051 18.5494Z" fill="#5C00F1"/>
<path d="M6.28188 18.5417C7.41088 18.108 8.26858 17.1982 8.69689 15.9798C9.10464 14.8204 9.07126 13.5114 8.60263 12.2937C8.13373 11.0769 7.28084 10.0835 6.20097 9.49633C5.06663 8.87976 3.82041 8.77936 2.69328 9.21382C0.425673 10.0857 -0.614939 12.8879 0.373869 15.4618C1.16374 17.5104 3.00597 18.8036 4.8685 18.8036C5.34408 18.8036 5.82099 18.7192 6.28188 18.5417Z" fill="#5C00F1"/>
<path d="M13.6455 13.9034C16.4802 13.9034 18.7866 11.2758 18.7866 8.04611C18.7866 4.8156 16.4802 2.1875 13.6455 2.1875C10.8109 2.1875 8.50488 4.8156 8.50488 8.04611C8.50488 11.2758 10.8109 13.9034 13.6455 13.9034Z" fill="#5C00F1"/>
<path d="M22.5242 15.3424H22.5244C22.9605 15.4871 23.4054 15.5563 23.8484 15.5563C25.9157 15.5563 27.9304 14.0516 28.6992 11.7391C29.1419 10.408 29.1128 9.00048 28.6172 7.77615C28.0987 6.49441 27.1376 5.56408 25.9109 5.15633C24.6839 4.74858 23.357 4.91867 22.1744 5.63484C21.0446 6.31897 20.1788 7.42901 19.7366 8.76015C18.8034 11.5682 20.0539 14.521 22.5242 15.3424Z" fill="#5C00F1"/>
<path d="M33.3509 14.6588L33.3501 14.658C31.3951 13.2139 28.4714 13.8398 26.8322 16.054C25.1945 18.2693 25.4506 21.2475 27.4025 22.6926C28.1144 23.22 28.9556 23.4721 29.8165 23.4721C31.3169 23.4721 32.878 22.7063 33.9215 21.298C35.5589 19.0827 35.3031 16.1045 33.3509 14.6588Z" fill="#5C00F1"/>
</g>
<defs>
<clipPath id="clip0">
<rect width="35" height="35" fill="white"/>
</clipPath>
</defs>
</svg>
